# xmcd CD database file
#
# Track frame offsets:
#	150
#	31828
#	72524
#	100169
#	142892
#	179696
#	208762
#	245581
#
# Disc length: 3901 seconds
#
# Revision: 0
# Processed by: cddbd v1.5.1PL2 Copyright (c) Steve Scherf et al.
# Submitted via: CDex 1.51
#
DISCID=730f3b08
DTITLE=Scott Rhoda - Very Saxy
DYEAR=2005
DGENRE=Jazz
TTITLE0=Blues for later
TTITLE1=In walked bud
TTITLE2=What a wonderful world
TTITLE3=The day of wine and roses
TTITLE4=Rollin and strollin
TTITLE5=My funny Valentine
TTITLE6=What's up with that
TTITLE7=On the sunny side of the street
EXTD=YEAR: 2005
EXTT0=
EXTT1=
EXTT2=
EXTT3=
EXTT4=
EXTT5=
EXTT6=
EXTT7=
PLAYORDER=
